<?xml version="1.0" encoding="utf-8"?>
<svg width="139.66943px" height="130px" viewBox="0 0 139.66943 130" version="1.1" xmlns:xlink="http://www.w3.org/1999/xlink" xmlns="http://www.w3.org/2000/svg">
  <defs>
    <linearGradient gradientUnits="objectBoundingBox" x1="0.50384617" y1="1" x2="0.50384617" y2="-0.70384616" id="gradient_1">
      <stop offset="6.0610733%" stop-color="#CC3A83" />
      <stop offset="41.195686%" stop-color="#FF636B" />
    </linearGradient>
  </defs>
  <path d="M0 0L139.669 0L139.669 130L0 130L0 0Z" id="矩形" fill="url(#gradient_1)" fill-rule="evenodd" stroke="none" />
  <path d="M107.834 43.6043C106.659 35.5459 99.0472 29.1953 90.0239 27.9647C88.5014 27.7568 82.7334 27 69.372 27L69.2723 27C55.9072 27 53.0397 27.7568 51.5174 27.9647C42.7452 29.1612 34.7343 34.8675 32.7907 43.0214C31.8559 47.0369 31.756 51.4888 31.9298 55.5726C32.1773 61.4289 32.2253 67.275 32.8018 73.1075C33.2002 76.9817 33.8955 80.8251 34.8821 84.6088C36.7297 91.5968 44.2084 97.4122 51.5359 99.7848C59.3808 102.259 67.8175 102.67 75.9012 100.971C76.7905 100.78 77.6699 100.559 78.5395 100.306C80.5016 99.7302 82.8037 99.086 84.496 97.9542C84.5192 97.9384 84.5382 97.9178 84.5516 97.8942C84.5651 97.8706 84.5726 97.8445 84.5735 97.8179L84.5735 92.1661C84.5732 92.1412 84.5668 92.1167 84.5547 92.0944C84.5427 92.0721 84.5254 92.0525 84.5042 92.0371C84.483 92.0218 84.4583 92.011 84.4318 92.0056C84.4055 92.0002 84.3782 92.0003 84.3519 92.0059C79.1728 93.1472 73.8654 93.7193 68.5406 93.7103C59.3768 93.7103 56.9121 89.6981 56.2064 88.0278C55.6391 86.5842 55.2788 85.0784 55.1349 83.5486C55.1334 83.5229 55.1385 83.4973 55.1498 83.4738C55.1611 83.4502 55.1782 83.4295 55.1998 83.4132C55.2214 83.397 55.2468 83.3856 55.274 83.3801C55.3013 83.3746 55.3296 83.3751 55.3565 83.3816C60.4494 84.5151 65.6701 85.0873 70.9091 85.086C72.1692 85.086 73.4255 85.086 74.6855 85.0553C79.9547 84.919 85.5085 84.6701 90.6927 83.7361C90.8219 83.7123 90.9513 83.6918 91.0622 83.6611C99.2393 82.2124 107.021 77.665 107.812 66.1501C107.841 65.6967 107.915 61.4016 107.915 60.9312C107.919 59.3325 108.473 49.5901 107.834 43.6043L107.834 43.6043ZM95.2487 72.3371L86.6502 72.3371L86.6502 52.9069C86.6502 48.8163 84.8027 46.7302 81.0448 46.7302C76.9137 46.7302 74.8444 49.1981 74.8444 54.0727L74.8444 64.7082L66.2977 64.7082L66.2977 54.0727C66.2977 49.1981 64.2247 46.7302 60.0937 46.7302C56.3579 46.7302 54.4918 48.8163 54.4882 52.9069L54.4882 72.3371L45.8972 72.3371L45.8972 52.3172C45.8972 48.2266 47.0291 44.9769 49.2929 42.568C51.6282 40.1648 54.6915 38.9308 58.4937 38.9308C62.8945 38.9308 66.2201 40.492 68.4371 43.6111L70.5766 46.9245L72.7198 43.6111C74.9368 40.492 78.2624 38.9308 82.6558 38.9308C86.4544 38.9308 89.5176 40.1648 91.8603 42.568C94.1241 44.9746 95.2561 48.2243 95.2561 52.3172L95.2487 72.3371L95.2487 72.3371Z" id="Group" fill="#FBFBFB" fill-opacity="0.96862745" fill-rule="evenodd" stroke="none" />
</svg>