<?xml version="1.0" encoding="utf-8"?>
<svg width="65px" height="64.99997px" viewBox="0 0 65 64.99997" version="1.1" xmlns:xlink="http://www.w3.org/1999/xlink" xmlns="http://www.w3.org/2000/svg">
  <defs>
    <linearGradient gradientUnits="objectBoundingBox" x1="0.49999997" y1="0" x2="0.49999997" y2="1.0000006" id="gradient_1">
      <stop offset="0%" stop-color="#FF636B" />
      <stop offset="100%" stop-color="#CC3A83" />
    </linearGradient>
  </defs>
  <path d="M64.7378 14.3904C63.7366 7.40642 57.2504 1.90257 49.5616 0.836066C48.2644 0.655854 43.3496 0 31.9643 0L31.8793 0C20.4909 0 18.0476 0.655854 16.7504 0.836066C9.27569 1.87302 2.44959 6.81852 0.793444 13.8852C-0.00314331 17.3654 -0.0881547 21.2237 0.0598281 24.7629C0.270783 29.8384 0.311713 34.905 0.802891 39.9598C1.14245 43.3175 1.73482 46.6484 2.57553 49.9276C4.14982 55.9839 10.5225 61.0239 16.7662 63.0801C23.4508 65.2244 30.6397 65.5804 37.5278 64.1082C38.2855 63.9428 39.0339 63.7508 39.7728 63.5321C41.4477 63.0329 43.4093 62.4745 44.8514 61.4937C44.8712 61.4799 44.8874 61.4621 44.8988 61.4417C44.9103 61.4212 44.9167 61.3986 44.9176 61.3755L44.9176 56.4773C44.9171 56.4557 44.9117 56.4345 44.9015 56.4151C44.8912 56.3958 44.8765 56.3788 44.8584 56.3655C44.8403 56.3522 44.8192 56.3429 44.7967 56.3382C44.7743 56.3335 44.751 56.3336 44.7286 56.3384C40.3155 57.3276 35.7932 57.8234 31.2558 57.8156C23.4474 57.8156 21.3473 54.3384 20.746 52.8908C20.2625 51.6397 19.9555 50.3346 19.8329 49.0088C19.8316 48.9866 19.836 48.9643 19.8456 48.9439C19.8552 48.9236 19.8698 48.9056 19.8882 48.8915C19.9066 48.8774 19.9283 48.8675 19.9515 48.8628C19.9747 48.858 19.9988 48.8585 20.0218 48.8641C24.3614 49.8465 28.8099 50.3423 33.2741 50.3412C34.3477 50.3412 35.4183 50.3412 36.492 50.3146C40.9818 50.1964 45.7141 49.9808 50.1315 49.1713C50.2417 49.1506 50.352 49.1329 50.4464 49.1063C57.4142 47.8507 64.045 43.9097 64.7189 33.9301C64.744 33.5372 64.807 29.8148 64.807 29.4071C64.8101 28.0215 65.2825 19.5781 64.7378 14.3904L64.7378 14.3904Z" id="形状" fill="url(#gradient_1)" stroke="none" />
  <path d="M53.6988 22.237L53.6988 39.5876L46.3722 39.5876L46.3722 22.7481C46.3722 19.2029 44.7979 17.3949 41.5957 17.3949C38.0756 17.3949 36.3124 19.5338 36.3124 23.7585L36.3124 32.9759L29.0299 32.9759L29.0299 23.7585C29.0299 19.5338 27.2635 17.3949 23.7433 17.3949C20.5601 17.3949 18.9701 19.2029 18.9701 22.7481L18.9701 39.5876L11.6465 39.5876L11.6465 22.237C11.6465 18.6918 12.6111 15.8754 14.5401 13.7877C16.53 11.7049 19.1402 10.6355 22.38 10.6355C26.13 10.6355 28.9637 11.9885 30.8528 14.6917L32.6758 17.5633L34.502 14.6917C36.3912 11.9885 39.2248 10.6355 42.9685 10.6355C46.2053 10.6355 48.8154 11.7049 50.8116 13.7877C52.7386 15.8734 53.701 18.6899 53.6988 22.237L53.6988 22.237Z" id="形状" fill="#FFFFFF" stroke="none" />
</svg>