<?xml version="1.0" encoding="utf-8"?>
<svg width="313px" height="80px" viewBox="0 0 313 80" version="1.1" xmlns:xlink="http://www.w3.org/1999/xlink" xmlns="http://www.w3.org/2000/svg">
  <defs>
    <linearGradient gradientUnits="objectBoundingBox" x1="0.5" y1="0" x2="0.5" y2="1" id="gradient_1">
      <stop offset="0.1607717%" stop-color="#FF636B" />
      <stop offset="100%" stop-color="#CC3A83" />
    </linearGradient>
    <path d="M313 0L313 0L313 80L0 80L0 0L313 0Z" id="path_1" />
    <clipPath id="clip_1">
      <use xlink:href="#path_1" clip-rule="evenodd" fill-rule="evenodd" />
    </clipPath>
  </defs>
  <g id="logo-full-black(1)">
    <path d="M313 0L313 0L313 80L0 80L0 0L313 0Z" id="logo-full-black(1)" fill="none" stroke="none" />
    <path d="M72.9455 18.5206C71.8169 10.0221 64.5038 3.31335 55.846 2.02275C54.3811 1.80359 48.8453 1 36.0206 1L35.9245 1C23.0879 1 20.338 1.80359 18.873 2.02275C10.4433 3.289 2.75813 9.30374 0.884866 17.9118C-0.00373557 22.1489 -0.0998006 26.8487 0.0683131 31.1589C0.308475 37.3441 0.356508 43.5049 0.908881 49.6658C1.29314 53.7568 1.95359 57.8113 2.90223 61.8048C4.67943 69.1832 11.8603 75.3197 18.8971 77.8157C26.4261 80.4213 34.5317 80.8595 42.2888 79.0697C43.1414 78.8628 43.982 78.6315 44.8226 78.3635C46.7079 77.7548 48.9173 77.073 50.5504 75.8798C50.5745 75.8676 50.5865 75.8432 50.5985 75.8189C50.6105 75.7945 50.6225 75.7702 50.6225 75.7336L50.6225 69.7676C50.6225 69.7676 50.6225 69.7189 50.5985 69.6946C50.5985 69.6702 50.5745 69.6459 50.5504 69.6337C50.5264 69.6215 50.5024 69.6093 50.4785 69.5972C50.4543 69.5972 50.4304 69.5972 50.4064 69.5972C45.4349 70.8026 40.3316 71.4114 35.2281 71.3991C26.4261 71.3991 24.0605 67.162 23.3881 65.4088C22.8477 63.8869 22.4995 62.2918 22.3554 60.6846C22.3554 60.6603 22.3554 60.6359 22.3674 60.6116C22.3674 60.5873 22.3914 60.5629 22.4155 60.5507C22.4394 60.5386 22.4634 60.5263 22.4874 60.5142L22.5715 60.5142C27.4588 61.7074 32.4782 62.3162 37.5096 62.3162C38.7225 62.3162 39.9232 62.3162 41.1361 62.2797C46.1915 62.1335 51.5232 61.8778 56.5065 60.8916C56.6265 60.8673 56.7587 60.8429 56.8667 60.8186C64.7201 59.2845 72.1891 54.4873 72.9455 42.3361C72.9697 41.8613 73.0417 37.3198 73.0417 36.8327C73.0417 35.1403 73.582 24.8641 72.9576 18.5451L72.9455 18.5206L72.9455 18.5206Z" id="形状" fill="url(#gradient_1)" stroke="none" clip-path="url(#clip_1)" />
    <path d="M14.8143 22.2813C14.8143 19.7975 16.7717 17.8008 19.1973 17.8008C21.623 17.8008 23.5802 19.8097 23.5802 22.2813C23.5802 24.753 21.623 26.7619 19.1973 26.7619C16.7717 26.7619 14.8143 24.753 14.8143 22.2813L14.8143 22.2813Z" id="形状" fill="#000000" stroke="none" clip-path="url(#clip_1)" />
    <path d="M76.811 27.141L76.811 47.742L68.8256 47.742L68.8256 27.7498C68.8256 23.537 67.0965 21.4062 63.6261 21.4062C59.7955 21.4062 57.8622 23.951 57.8622 28.9551L57.8622 39.9009L49.9369 39.9009L49.9369 28.9551C49.9369 23.9265 48.0276 21.4062 44.1729 21.4062C40.7147 21.4062 38.9734 23.537 38.9734 27.7498L38.9734 47.7299L31 47.7299L31 27.141C31 22.9404 32.0447 19.5921 34.1461 17.1083C36.3196 14.6245 39.1655 13.3704 42.6839 13.3704C46.7667 13.3704 49.8648 14.9775 51.9062 18.1919L53.8996 21.6011L55.8929 18.1919C57.9342 14.9898 61.0204 13.3704 65.1151 13.3704C68.6335 13.3704 71.4794 14.6367 73.6529 17.1083C75.7543 19.5921 76.799 22.916 76.799 27.141L76.811 27.141L76.811 27.141ZM104.285 37.3806C105.943 35.5907 106.723 33.3748 106.723 30.6718C106.723 27.9689 105.93 25.7286 104.285 24.024C102.701 22.2342 100.684 21.3819 98.2455 21.3819C95.8078 21.3819 93.8025 22.2342 92.2055 24.024C90.6204 25.7286 89.8279 27.9689 89.8279 30.6718C89.8279 33.3748 90.6204 35.6151 92.2055 37.3806C93.7905 39.0851 95.8078 39.9497 98.2455 39.9497C100.684 39.9497 102.689 39.0974 104.285 37.3806L104.285 37.3806ZM106.723 14.1983L114.589 14.1983L114.589 47.1455L106.723 47.1455L106.723 43.2614C104.346 46.4879 101.055 48.083 96.7806 48.083C92.5057 48.083 89.2154 46.4392 86.2974 43.0788C83.4275 39.7184 81.9746 35.5664 81.9746 30.6962C81.9746 25.826 83.4395 21.7349 86.2974 18.3745C89.2274 15.0141 92.7098 13.3096 96.7806 13.3096C100.851 13.3096 104.346 14.8924 106.723 18.1067L106.723 14.2227L106.723 14.1983L106.723 14.1983ZM141.055 30.051C143.372 31.8407 144.526 34.3368 144.466 37.4902C144.466 40.8506 143.313 43.4928 140.935 45.3191C138.557 47.1089 135.686 48.022 132.204 48.022C125.925 48.022 121.662 45.38 119.404 40.1932L126.226 36.0413C127.136 38.866 129.143 40.3271 132.204 40.3271C135.014 40.3271 136.408 39.414 136.408 37.5023C136.408 36.1144 134.582 34.8603 130.859 33.8862C129.454 33.4965 128.29 33.0948 127.39 32.7661C126.104 32.2426 125.011 31.6459 124.099 30.9154C121.842 29.1256 120.69 26.7635 120.69 23.7318C120.69 20.5053 121.782 17.9362 123.979 16.0856C126.238 14.174 128.986 13.2607 132.276 13.2607C137.523 13.2607 141.354 15.5619 143.865 20.2374L137.164 24.1822C136.191 21.9419 134.534 20.8218 132.276 20.8218C129.898 20.8218 128.746 21.7349 128.746 23.5248C128.746 24.9128 130.572 26.1669 134.294 27.141C137.164 27.7985 139.421 28.7846 141.055 30.051L141.066 30.051L141.055 30.051L141.055 30.051ZM166.055 22.3559L159.162 22.3559L159.162 36.0657C159.162 37.7093 159.775 38.7077 160.939 39.1583C161.792 39.487 163.497 39.5478 166.067 39.4261L166.067 47.1332C160.771 47.7907 156.929 47.255 154.673 45.4895C152.414 43.7849 151.322 40.6072 151.322 36.0778L151.322 22.3559L146.025 22.3559L146.025 14.1861L151.322 14.1861L151.322 7.53829L159.186 4.96923L159.186 14.1983L166.079 14.1983L166.079 22.3682L166.067 22.3682L166.055 22.3559L166.055 22.3559ZM191.128 37.1858C192.714 35.4813 193.505 33.3018 193.505 30.6597C193.505 28.0176 192.714 25.8626 191.128 24.1335C189.531 22.429 187.585 21.5645 185.208 21.5645C182.83 21.5645 180.885 22.4169 179.287 24.1335C177.763 25.9234 176.97 28.0785 176.97 30.6597C176.97 33.2409 177.763 35.396 179.287 37.1858C180.873 38.8904 182.83 39.7548 185.208 39.7548C187.585 39.7548 189.531 38.9026 191.128 37.1858L191.128 37.1858ZM173.753 43.0422C170.643 39.6818 169.117 35.603 169.117 30.6597C169.117 25.7164 170.643 21.6985 173.753 18.3381C176.863 14.9775 180.705 13.273 185.208 13.273C189.71 13.273 193.566 14.9775 196.664 18.3381C199.762 21.6985 201.359 25.8503 201.359 30.6597C201.359 35.469 199.762 39.6818 196.664 43.0422C193.553 46.4027 189.771 48.0464 185.208 48.0464C180.645 48.0464 176.85 46.4027 173.753 43.0422L173.753 43.0422ZM227.656 37.3685C229.242 35.5786 230.035 33.3627 230.035 30.6597C230.035 27.9568 229.242 25.7164 227.656 24.0118C226.072 22.222 224.055 21.3698 221.617 21.3698C219.179 21.3698 217.161 22.222 215.518 24.0118C213.932 25.7164 213.139 27.9568 213.139 30.6597C213.139 33.3627 213.932 35.603 215.518 37.3685C217.173 39.073 219.24 39.9375 221.617 39.9375C223.995 39.9375 226.061 39.0851 227.656 37.3685L227.656 37.3685ZM230.035 1L237.899 1L237.899 47.1332L230.035 47.1332L230.035 43.2492C227.717 46.4758 224.426 48.0707 220.152 48.0707C215.878 48.0707 212.539 46.4271 209.596 43.0665C206.727 39.7061 205.274 35.5543 205.274 30.6841C205.274 25.8139 206.738 21.7228 209.596 18.3624C212.514 15.0019 216.057 13.2973 220.152 13.2973C224.246 13.2973 227.717 14.8801 230.035 18.0945L230.035 1.01218L230.035 1L230.035 1ZM265.531 37.1492C267.115 35.4447 267.909 33.2653 267.909 30.6232C267.909 27.9811 267.115 25.826 265.531 24.0971C263.945 22.3925 262 21.5281 259.61 21.5281C257.221 21.5281 255.288 22.3803 253.691 24.0971C252.165 25.8869 251.372 28.0419 251.372 30.6232C251.372 33.2044 252.165 35.3594 253.691 37.1492C255.277 38.8539 257.234 39.7184 259.61 39.7184C261.989 39.7184 263.933 38.866 265.531 37.1492L265.531 37.1492ZM248.154 43.0057C245.057 39.6452 243.52 35.5664 243.52 30.6232C243.52 25.6799 245.046 21.6619 248.154 18.3015C251.264 14.9411 255.107 13.2364 259.61 13.2364C264.114 13.2364 267.969 14.9411 271.066 18.3015C274.175 21.6619 275.761 25.8139 275.761 30.6232C275.761 35.4326 274.175 39.6452 271.066 43.0057C267.956 46.3662 264.174 48.0099 259.61 48.0099C255.048 48.0099 251.253 46.3662 248.154 43.0057L248.154 43.0057ZM309.792 26.861L309.792 47.0967L301.927 47.0967L301.927 27.9202C301.927 25.7407 301.386 24.0971 300.271 22.8552C299.237 21.7349 297.773 21.1505 295.887 21.1505C291.445 21.1505 289.187 23.8535 289.187 29.3204L289.187 47.1089L281.321 47.1089L281.321 14.1861L289.187 14.1861L289.187 17.8875C291.071 14.7949 294.073 13.273 298.264 13.273C301.615 13.273 304.365 14.454 306.503 16.8891C308.701 19.3242 309.792 22.6239 309.792 26.8974" id="形状" fill="#FFFFFF" fill-rule="evenodd" stroke="none" clip-path="url(#clip_1)" />
    <path d="M79.811 26.141L79.811 46.742L71.8256 46.742L71.8256 26.7498C71.8256 22.537 70.0965 20.4062 66.6261 20.4062C62.7955 20.4062 60.8622 22.951 60.8622 27.9551L60.8622 38.9009L52.9369 38.9009L52.9369 27.9551C52.9369 22.9265 51.0276 20.4062 47.1729 20.4062C43.7147 20.4062 41.9734 22.537 41.9734 26.7498L41.9734 46.7299L34 46.7299L34 26.141C34 21.9404 35.0447 18.5921 37.1461 16.1083C39.3196 13.6245 42.1655 12.3704 45.6839 12.3704C49.7667 12.3704 52.8648 13.9775 54.9062 17.1919L56.8996 20.6011L58.8929 17.1919C60.9342 13.9898 64.0204 12.3704 68.1151 12.3704C71.6335 12.3704 74.4794 13.6367 76.6529 16.1083C78.7543 18.5921 79.799 21.916 79.799 26.141L79.811 26.141L79.811 26.141ZM107.285 36.3806C108.943 34.5907 109.723 32.3748 109.723 29.6718C109.723 26.9689 108.93 24.7286 107.285 23.024C105.701 21.2342 103.684 20.3819 101.245 20.3819C98.8078 20.3819 96.8025 21.2342 95.2055 23.024C93.6204 24.7286 92.8279 26.9689 92.8279 29.6718C92.8279 32.3748 93.6204 34.6151 95.2055 36.3806C96.7905 38.0851 98.8078 38.9497 101.245 38.9497C103.684 38.9497 105.689 38.0974 107.285 36.3806L107.285 36.3806ZM109.723 13.1983L117.589 13.1983L117.589 46.1455L109.723 46.1455L109.723 42.2614C107.346 45.4879 104.055 47.083 99.7806 47.083C95.5057 47.083 92.2154 45.4392 89.2974 42.0788C86.4275 38.7184 84.9746 34.5664 84.9746 29.6962C84.9746 24.826 86.4395 20.7349 89.2974 17.3745C92.2274 14.0141 95.7098 12.3096 99.7806 12.3096C103.851 12.3096 107.346 13.8924 109.723 17.1067L109.723 13.2227L109.723 13.1983L109.723 13.1983ZM144.055 29.051C146.372 30.8407 147.526 33.3368 147.466 36.4902C147.466 39.8506 146.313 42.4928 143.935 44.3191C141.557 46.1089 138.686 47.022 135.204 47.022C128.924 47.022 124.662 44.38 122.404 39.1932L129.225 35.0413C130.137 37.866 132.143 39.3271 135.204 39.3271C138.014 39.3271 139.408 38.414 139.408 36.5023C139.408 35.1144 137.582 33.8603 133.859 32.8862C132.454 32.4965 131.29 32.0948 130.389 31.7661C129.104 31.2426 128.012 30.6459 127.099 29.9154C124.842 28.1256 123.69 25.7635 123.69 22.7318C123.69 19.5053 124.782 16.9362 126.979 15.0856C129.238 13.174 131.986 12.2607 135.276 12.2607C140.523 12.2607 144.354 14.5619 146.865 19.2374L140.164 23.1822C139.191 20.9419 137.534 19.8218 135.276 19.8218C132.898 19.8218 131.746 20.7349 131.746 22.5248C131.746 23.9128 133.572 25.1669 137.294 26.141C140.164 26.7985 142.421 27.7846 144.055 29.051L144.066 29.051L144.055 29.051L144.055 29.051ZM169.055 21.3559L162.162 21.3559L162.162 35.0657C162.162 36.7093 162.775 37.7077 163.939 38.1583C164.792 38.487 166.497 38.5478 169.067 38.4261L169.067 46.1332C163.771 46.7907 159.929 46.255 157.673 44.4895C155.414 42.7849 154.322 39.6072 154.322 35.0778L154.322 21.3559L149.025 21.3559L149.025 13.1861L154.322 13.1861L154.322 6.53829L162.186 3.96923L162.186 13.1983L169.079 13.1983L169.079 21.3682L169.067 21.3682L169.055 21.3559L169.055 21.3559ZM194.128 36.1858C195.714 34.4813 196.505 32.3018 196.505 29.6597C196.505 27.0176 195.714 24.8626 194.128 23.1335C192.531 21.429 190.585 20.5645 188.208 20.5645C185.83 20.5645 183.885 21.4169 182.287 23.1335C180.763 24.9234 179.97 27.0785 179.97 29.6597C179.97 32.2409 180.763 34.396 182.287 36.1858C183.873 37.8904 185.83 38.7548 188.208 38.7548C190.585 38.7548 192.531 37.9026 194.128 36.1858L194.128 36.1858ZM176.753 42.0422C173.643 38.6818 172.117 34.603 172.117 29.6597C172.117 24.7164 173.643 20.6985 176.753 17.3381C179.863 13.9775 183.705 12.273 188.208 12.273C192.71 12.273 196.566 13.9775 199.664 17.3381C202.762 20.6985 204.359 24.8503 204.359 29.6597C204.359 34.469 202.762 38.6818 199.664 42.0422C196.553 45.4027 192.771 47.0464 188.208 47.0464C183.645 47.0464 179.85 45.4027 176.753 42.0422L176.753 42.0422ZM230.656 36.3685C232.242 34.5786 233.035 32.3627 233.035 29.6597C233.035 26.9568 232.242 24.7164 230.656 23.0118C229.072 21.222 227.055 20.3698 224.617 20.3698C222.179 20.3698 220.161 21.222 218.518 23.0118C216.932 24.7164 216.139 26.9568 216.139 29.6597C216.139 32.3627 216.932 34.603 218.518 36.3685C220.173 38.073 222.24 38.9375 224.617 38.9375C226.995 38.9375 229.061 38.0851 230.656 36.3685L230.656 36.3685ZM233.035 0L240.899 0L240.899 46.1332L233.035 46.1332L233.035 42.2492C230.717 45.4758 227.426 47.0707 223.152 47.0707C218.878 47.0707 215.539 45.4271 212.596 42.0665C209.727 38.7061 208.274 34.5543 208.274 29.6841C208.274 24.8139 209.738 20.7228 212.596 17.3624C215.514 14.0019 219.057 12.2973 223.152 12.2973C227.246 12.2973 230.717 13.8801 233.035 17.0945L233.035 0.0121756L233.035 0L233.035 0ZM268.531 36.1492C270.115 34.4447 270.909 32.2653 270.909 29.6232C270.909 26.9811 270.115 24.826 268.531 23.0971C266.945 21.3925 265 20.5281 262.61 20.5281C260.221 20.5281 258.289 21.3803 256.69 23.0971C255.165 24.8869 254.372 27.0419 254.372 29.6232C254.372 32.2044 255.165 34.3594 256.69 36.1492C258.276 37.8539 260.234 38.7184 262.61 38.7184C264.989 38.7184 266.933 37.866 268.531 36.1492L268.531 36.1492ZM251.154 42.0057C248.057 38.6452 246.52 34.5664 246.52 29.6232C246.52 24.6799 248.046 20.6619 251.154 17.3015C254.264 13.9411 258.107 12.2364 262.61 12.2364C267.114 12.2364 270.969 13.9411 274.066 17.3015C277.175 20.6619 278.761 24.8139 278.761 29.6232C278.761 34.4326 277.175 38.6452 274.066 42.0057C270.956 45.3662 267.174 47.0099 262.61 47.0099C258.047 47.0099 254.253 45.3662 251.154 42.0057L251.154 42.0057ZM312.792 25.861L312.792 46.0967L304.927 46.0967L304.927 26.9202C304.927 24.7407 304.386 23.0971 303.271 21.8552C302.237 20.7349 300.773 20.1505 298.887 20.1505C294.445 20.1505 292.187 22.8535 292.187 28.3204L292.187 46.1089L284.321 46.1089L284.321 13.1861L292.187 13.1861L292.187 16.8875C294.071 13.7949 297.073 12.273 301.264 12.273C304.615 12.273 307.365 13.454 309.503 15.8891C311.701 18.3242 312.792 21.6239 312.792 25.8974" id="形状" fill="#000000" fill-rule="evenodd" stroke="none" clip-path="url(#clip_1)" />
  </g>
</svg>