<?xml version="1.0" encoding="utf-8"?>
<svg width="261px" height="66.70929px" viewBox="0 0 261 66.70929" version="1.1" xmlns:xlink="http://www.w3.org/1999/xlink" xmlns="http://www.w3.org/2000/svg">
  <defs>
    <linearGradient gradientUnits="objectBoundingBox" x1="0.5" y1="0" x2="0.5" y2="1" id="gradient_1">
      <stop offset="0.1607717%" stop-color="#FF636B" />
      <stop offset="100%" stop-color="#CC3A83" />
    </linearGradient>
    <path d="M261 0L261 0L261 66.7093L0 66.7093L0 0L261 0Z" id="path_1" />
    <clipPath id="clip_1">
      <use xlink:href="#path_1" clip-rule="evenodd" fill-rule="evenodd" />
    </clipPath>
  </defs>
  <g id="mastodon-svg-logo-full">
    <path d="M261 0L261 0L261 66.7093L0 66.7093L0 0L261 0Z" id="mastodon-svg-logo-full" fill="none" stroke="none" />
    <path d="M60.8268 15.4437C59.8857 8.35708 53.7875 2.76289 46.5681 1.6867C45.3465 1.50395 40.7304 0.833866 30.0363 0.833866L29.9562 0.833866C19.2522 0.833866 16.9592 1.50395 15.7375 1.6867C8.70831 2.74259 2.29991 7.75807 0.737859 14.936C-0.00311496 18.4692 -0.0832203 22.3882 0.056964 25.9823C0.257227 31.14 0.29728 36.2772 0.757885 41.4146C1.07831 44.826 1.62903 48.2069 2.42007 51.5369C3.90202 57.6895 9.8899 62.8065 15.7576 64.8878C22.0358 67.0606 28.7948 67.426 35.2632 65.9335C35.9741 65.761 36.6751 65.5681 37.376 65.3446C38.9481 64.8371 40.7905 64.2685 42.1522 63.2736C42.1723 63.2634 42.1824 63.243 42.1924 63.2228C42.2024 63.2024 42.2124 63.1822 42.2124 63.1517L42.2124 58.1768C42.2124 58.1768 42.2124 58.1362 42.1924 58.1159C42.1924 58.0956 42.1723 58.0753 42.1522 58.0652C42.1322 58.055 42.1122 58.0448 42.0923 58.0347C42.0721 58.0347 42.0522 58.0347 42.0322 58.0347C37.8866 59.0399 33.6311 59.5475 29.3755 59.5373C22.0358 59.5373 20.0632 56.0041 19.5025 54.5422C19.0519 53.2731 18.7616 51.943 18.6414 50.6028C18.6414 50.5825 18.6414 50.5622 18.6514 50.5419C18.6514 50.5217 18.6714 50.5013 18.6915 50.4912C18.7114 50.4811 18.7315 50.4708 18.7515 50.4607L18.8216 50.4607C22.897 51.4557 27.0825 51.9633 31.278 51.9633C32.2894 51.9633 33.2906 51.9633 34.302 51.9329C38.5175 51.811 42.9634 51.5978 47.1188 50.7754C47.2189 50.7552 47.3291 50.7348 47.4192 50.7145C53.9679 49.4353 60.196 45.4351 60.8268 35.3026C60.8469 34.9067 60.907 31.1197 60.907 30.7135C60.907 29.3023 61.3575 20.7333 60.8368 15.4641L60.8268 15.4437L60.8268 15.4437Z" id="形状" fill="url(#gradient_1)" stroke="none" clip-path="url(#clip_1)" />
    <path d="M12.3531 18.5796C12.3531 16.5085 13.9853 14.8435 16.008 14.8435C18.0307 14.8435 19.6627 16.5186 19.6627 18.5796C19.6627 20.6407 18.0307 22.3158 16.008 22.3158C13.9853 22.3158 12.3531 20.6407 12.3531 18.5796L12.3531 18.5796Z" id="形状" fill="#000000" stroke="none" clip-path="url(#clip_1)" />
    <path d="M66.5517 21.7981L66.5517 38.9766L59.8929 38.9766L59.8929 22.3057C59.8929 18.7928 58.4511 17.016 55.5572 17.016C52.363 17.016 50.7509 19.1381 50.7509 23.3108L50.7509 32.4381L44.1423 32.4381L44.1423 23.3108C44.1423 19.1176 42.5502 17.016 39.3359 17.016C36.4522 17.016 35.0002 18.7928 35.0002 22.3057L35.0002 38.9665L28.3514 38.9665L28.3514 21.7981C28.3514 18.2954 29.2226 15.5033 30.9749 13.4322C32.7873 11.361 35.1604 10.3153 38.0942 10.3153C41.4988 10.3153 44.0821 11.6554 45.7844 14.3357L47.4466 17.1786L49.1088 14.3357C50.8109 11.6656 53.3844 10.3153 56.7989 10.3153C59.7327 10.3153 62.1058 11.3712 63.9182 13.4322C65.6705 15.5033 66.5417 18.275 66.5417 21.7981L66.5517 21.7981L66.5517 21.7981ZM89.4617 30.3365C90.8434 28.844 91.4947 26.9962 91.4947 24.7423C91.4947 22.4884 90.8334 20.6203 89.4617 19.1989C88.14 17.7065 86.4581 16.9958 84.4252 16.9958C82.3924 16.9958 80.7203 17.7065 79.3886 19.1989C78.0669 20.6203 77.406 22.4884 77.406 24.7423C77.406 26.9962 78.0669 28.8644 79.3886 30.3365C80.7103 31.7579 82.3924 32.4788 84.4252 32.4788C86.4581 32.4788 88.13 31.7681 89.4617 30.3365L89.4617 30.3365ZM91.4947 11.0056L98.053 11.0056L98.053 38.4792L91.4947 38.4792L91.4947 35.2403C89.5117 37.9308 86.7683 39.2609 83.2036 39.2609C79.6389 39.2609 76.8953 37.8902 74.462 35.0881C72.0689 32.2859 70.8574 28.8237 70.8574 24.7626C70.8574 20.7016 72.0789 17.2901 74.462 14.488C76.9053 11.6859 79.8091 10.2646 83.2036 10.2646C86.5982 10.2646 89.5117 11.5844 91.4947 14.2647L91.4947 11.026L91.4947 11.0056L91.4947 11.0056ZM120.122 24.2246C122.055 25.717 123.016 27.7984 122.966 30.4279C122.966 33.2301 122.005 35.4333 120.022 36.9562C118.04 38.4486 115.646 39.21 112.742 39.21C107.506 39.21 103.951 37.007 102.068 32.6819L107.757 29.2197C108.516 31.5752 110.189 32.7935 112.742 32.7935C115.086 32.7935 116.247 32.0321 116.247 30.438C116.247 29.2807 114.725 28.2349 111.621 27.4227C110.449 27.0977 109.479 26.7628 108.727 26.4887C107.655 26.0521 106.744 25.5546 105.983 24.9454C104.101 23.453 103.14 21.4833 103.14 18.9553C103.14 16.2648 104.051 14.1225 105.883 12.5794C107.767 10.9853 110.058 10.2238 112.802 10.2238C117.178 10.2238 120.372 12.1427 122.465 16.0414L116.878 19.3308C116.067 17.4627 114.684 16.5287 112.802 16.5287C110.82 16.5287 109.858 17.2901 109.858 18.7827C109.858 19.9401 111.381 20.9858 114.484 21.7981C116.878 22.3464 118.76 23.1686 120.122 24.2246L120.132 24.2246L120.122 24.2246L120.122 24.2246ZM140.97 17.808L135.222 17.808L135.222 29.2401C135.222 30.6106 135.733 31.4432 136.704 31.8189C137.415 32.093 138.837 32.1437 140.98 32.0422L140.98 38.4689C136.563 39.0172 133.36 38.5705 131.478 37.0983C129.595 35.6769 128.683 33.0271 128.683 29.2502L128.683 17.808L124.267 17.808L124.267 10.9954L128.683 10.9954L128.683 5.45206L135.242 3.30981L135.242 11.0056L140.99 11.0056L140.99 17.8182L140.98 17.8182L140.97 17.808L140.97 17.808ZM161.877 30.1741C163.199 28.7528 163.859 26.9354 163.859 24.7322C163.859 22.5291 163.199 20.7321 161.877 19.2902C160.545 17.8689 158.923 17.148 156.941 17.148C154.958 17.148 153.336 17.8588 152.003 19.2902C150.732 20.7828 150.071 22.5798 150.071 24.7322C150.071 26.8846 150.732 28.6816 152.003 30.1741C153.326 31.5955 154.958 32.3163 156.941 32.3163C158.923 32.3163 160.545 31.6057 161.877 30.1741L161.877 30.1741ZM147.389 35.0576C144.795 32.2554 143.523 28.8543 143.523 24.7322C143.523 20.6102 144.795 17.2598 147.389 14.4577C149.981 11.6554 153.186 10.234 156.941 10.234C160.695 10.234 163.91 11.6554 166.493 14.4577C169.077 17.2598 170.408 20.7218 170.408 24.7322C170.408 28.7425 169.077 32.2554 166.493 35.0576C163.899 37.8598 160.746 39.2304 156.941 39.2304C153.136 39.2304 149.971 37.8598 147.389 35.0576L147.389 35.0576ZM192.337 30.3265C193.658 28.8339 194.32 26.9862 194.32 24.7322C194.32 22.4784 193.658 20.6102 192.337 19.1888C191.016 17.6963 189.334 16.9857 187.3 16.9857C185.268 16.9857 183.585 17.6963 182.214 19.1888C180.892 20.6102 180.231 22.4784 180.231 24.7322C180.231 26.9862 180.892 28.8543 182.214 30.3265C183.595 31.7478 185.318 32.4687 187.3 32.4687C189.284 32.4687 191.006 31.7579 192.337 30.3265L192.337 30.3265ZM194.32 0L200.878 0L200.878 38.4689L194.32 38.4689L194.32 35.2302C192.387 37.9207 189.643 39.2507 186.079 39.2507C182.514 39.2507 179.731 37.8801 177.277 35.0778C174.884 32.2757 173.673 28.8137 173.673 24.7526C173.673 20.6915 174.894 17.28 177.277 14.4779C179.71 11.6757 182.664 10.2543 186.079 10.2543C189.493 10.2543 192.387 11.5741 194.32 14.2545L194.32 0.0101528L194.32 0L194.32 0ZM223.918 30.1436C225.24 28.7223 225.901 26.9049 225.901 24.7018C225.901 22.4986 225.24 20.7016 223.918 19.2599C222.597 17.8385 220.975 17.1177 218.982 17.1177C216.99 17.1177 215.378 17.8283 214.045 19.2599C212.774 20.7523 212.113 22.5493 212.113 24.7018C212.113 26.8541 212.774 28.6511 214.045 30.1436C215.368 31.5651 217 32.2859 218.982 32.2859C220.965 32.2859 222.587 31.5752 223.918 30.1436L223.918 30.1436ZM209.429 35.0271C206.847 32.2249 205.564 28.8237 205.564 24.7018C205.564 20.5797 206.837 17.2293 209.429 14.4271C212.022 11.625 215.227 10.2035 218.982 10.2035C222.737 10.2035 225.951 11.625 228.535 14.4271C231.127 17.2293 232.45 20.6915 232.45 24.7018C232.45 28.7122 231.127 32.2249 228.535 35.0271C225.941 37.8293 222.787 39.2 218.982 39.2C215.177 39.2 212.012 37.8293 209.429 35.0271L209.429 35.0271ZM260.827 21.5646L260.827 38.4385L254.269 38.4385L254.269 22.4478C254.269 20.6304 253.817 19.2599 252.887 18.2243C252.026 17.2901 250.804 16.8028 249.231 16.8028C245.527 16.8028 243.644 19.0568 243.644 23.6154L243.644 38.4486L237.086 38.4486L237.086 10.9954L243.644 10.9954L243.644 14.0819C245.216 11.5031 247.719 10.234 251.214 10.234C254.008 10.234 256.301 11.2188 258.084 13.2494C259.916 15.2799 260.827 18.0314 260.827 21.595" id="形状" fill="#000000" fill-rule="evenodd" stroke="none" clip-path="url(#clip_1)" />
  </g>
</svg>