<?xml version="1.0" encoding="utf-8"?>
<svg width="261px" height="66.496826px" viewBox="0 0 261 66.496826" version="1.1" xmlns:xlink="http://www.w3.org/1999/xlink" xmlns="http://www.w3.org/2000/svg">
  <defs>
    <linearGradient gradientUnits="objectBoundingBox" x1="0.5" y1="0" x2="0.5" y2="1" id="gradient_1">
      <stop offset="0.1607717%" stop-color="#FF636B" />
      <stop offset="100%" stop-color="#CC3A83" />
    </linearGradient>
    <path d="M261 0L261 0L261 66.4968L0 66.4968L0 0L261 0Z" id="path_1" />
    <clipPath id="clip_1">
      <use xlink:href="#path_1" clip-rule="evenodd" fill-rule="evenodd" />
    </clipPath>
  </defs>
  <g id="logo-symbol-wordmark">
    <path d="M261 0L261 0L261 66.4968L0 66.4968L0 0L261 0Z" id="logo-symbol-wordmark" fill="none" stroke="none" />
    <path d="M60.633 14.5633C59.6949 7.49926 53.6162 1.92288 46.4198 0.850123C45.2021 0.667951 40.6007 0 29.9407 0L29.8608 0C19.1909 0 16.9052 0.667951 15.6874 0.850123C8.68058 1.90264 2.29259 6.90216 0.73551 14.0573C-0.00310504 17.5792 -0.0829552 21.4857 0.0567826 25.0684C0.256407 30.2096 0.296333 35.3305 0.755471 40.4515C1.07487 43.852 1.62384 47.2221 2.41236 50.5416C3.88959 56.6746 9.8584 61.7753 15.7075 63.85C21.9656 66.0158 28.7031 66.38 35.1509 64.8923C35.8596 64.7204 36.5583 64.5281 37.257 64.3053C38.8241 63.7994 40.6606 63.2326 42.018 62.2408C42.038 62.2307 42.048 62.2104 42.058 62.1902C42.068 62.1699 42.0779 62.1497 42.0779 62.1193L42.0779 57.1603C42.0779 57.1603 42.0779 57.1198 42.058 57.0997C42.058 57.0794 42.038 57.0592 42.018 57.049C41.9981 57.0389 41.9781 57.0287 41.9582 57.0187C41.9381 57.0187 41.9183 57.0187 41.8983 57.0187C37.766 58.0206 33.524 58.5267 29.282 58.5164C21.9656 58.5164 19.9993 54.9945 19.4404 53.5372C18.9912 52.2722 18.7018 50.9464 18.582 49.6104C18.582 49.5902 18.582 49.57 18.592 49.5498C18.592 49.5296 18.612 49.5093 18.632 49.4991C18.6519 49.4891 18.6718 49.4789 18.6918 49.4688L18.7617 49.4688C22.824 50.4606 26.9962 50.9666 31.1784 50.9666C32.1865 50.9666 33.1846 50.9666 34.1927 50.9363C38.3948 50.8148 42.8266 50.6022 46.9688 49.7825C47.0685 49.7623 47.1784 49.742 47.2682 49.7218C53.796 48.4467 60.0043 44.4592 60.633 34.359C60.6532 33.9643 60.713 30.1894 60.713 29.7845C60.713 28.3778 61.1621 19.8361 60.6431 14.5837L60.633 14.5633L60.633 14.5633Z" id="形状" fill="url(#gradient_1)" stroke="none" clip-path="url(#clip_1)" />
    <path d="M12.7296 18.6567C12.7296 16.592 14.3565 14.9324 16.3727 14.9324C18.3889 14.9324 20.0158 16.6022 20.0158 18.6567C20.0158 20.7111 18.3889 22.3809 16.3727 22.3809C14.3565 22.3809 12.7296 20.7111 12.7296 18.6567L12.7296 18.6567Z" id="形状" fill="#FFFFFF" stroke="none" clip-path="url(#clip_1)" />
    <path d="M66.928 21.8648L66.928 38.9886L60.2905 38.9886L60.2905 22.3709C60.2905 18.8691 58.8532 17.098 55.9685 17.098C52.7846 17.098 51.1775 19.2133 51.1775 23.3727L51.1775 32.471L44.5899 32.471L44.5899 23.3727C44.5899 19.193 43.0029 17.098 39.7989 17.098C36.9244 17.098 35.477 18.8691 35.477 22.3709L35.477 38.9785L28.8495 38.9785L28.8495 21.8648C28.8495 18.3732 29.7178 15.5901 31.4646 13.5255C33.2712 11.461 35.6367 10.4186 38.5612 10.4186C41.9548 10.4186 44.53 11.7544 46.2269 14.4262L47.8838 17.26L49.5407 14.4262C51.2375 11.7646 53.8027 10.4186 57.2063 10.4186C60.1307 10.4186 62.4964 11.4711 64.303 13.5255C66.0497 15.5901 66.9181 18.353 66.9181 21.8648L66.928 21.8648L66.928 21.8648ZM89.7649 30.3761C91.1422 28.8884 91.7914 27.0464 91.7914 24.7997C91.7914 22.553 91.1322 20.6908 89.7649 19.274C88.4474 17.7862 86.7709 17.0778 84.7444 17.0778C82.7184 17.0778 81.0515 17.7862 79.724 19.274C78.4065 20.6908 77.7477 22.553 77.7477 24.7997C77.7477 27.0464 78.4065 28.9086 79.724 30.3761C81.0415 31.7929 82.7184 32.5115 84.7444 32.5115C86.7709 32.5115 88.4375 31.8031 89.7649 30.3761L89.7649 30.3761ZM91.7914 11.1068L98.3288 11.1068L98.3288 38.4928L91.7914 38.4928L91.7914 35.2643C89.8148 37.9462 87.0801 39.272 83.5266 39.272C79.9736 39.272 77.2387 37.9057 74.8132 35.1125C72.4278 32.3193 71.22 28.8681 71.22 24.8199C71.22 20.7718 72.4376 17.3713 74.8132 14.578C77.2487 11.7848 80.1433 10.368 83.5266 10.368C86.9105 10.368 89.8148 11.6837 91.7914 14.3554L91.7914 11.127L91.7914 11.1068L91.7914 11.1068ZM120.328 24.2836C122.254 25.7713 123.213 27.846 123.163 30.4672C123.163 33.2604 122.205 35.4566 120.228 36.9746C118.252 38.4623 115.866 39.2213 112.971 39.2213C107.751 39.2213 104.208 37.0253 102.331 32.7139L108.002 29.2628C108.759 31.6108 110.427 32.8252 112.971 32.8252C115.307 32.8252 116.465 32.0663 116.465 30.4772C116.465 29.3236 114.947 28.2812 111.853 27.4715C110.686 27.1477 109.718 26.8137 108.969 26.5405C107.901 26.1053 106.993 25.6093 106.234 25.0021C104.358 23.5144 103.4 21.551 103.4 19.0311C103.4 16.3492 104.308 14.2137 106.135 12.6755C108.012 11.0865 110.297 10.3275 113.031 10.3275C117.393 10.3275 120.577 12.2402 122.663 16.1265L117.094 19.4054C116.285 17.5434 114.907 16.6122 113.031 16.6122C111.055 16.6122 110.097 17.3713 110.097 18.859C110.097 20.0128 111.614 21.0552 114.709 21.8648C117.094 22.4113 118.97 23.2311 120.328 24.2836L120.338 24.2836L120.328 24.2836L120.328 24.2836ZM141.11 17.8875L135.379 17.8875L135.379 29.2831C135.379 30.6493 135.889 31.4792 136.857 31.8537C137.565 32.1269 138.983 32.1775 141.12 32.0763L141.12 38.4826C136.717 39.0291 133.523 38.5838 131.647 37.1163C129.77 35.6994 128.862 33.0581 128.862 29.2932L128.862 17.8875L124.46 17.8875L124.46 11.0966L128.862 11.0966L128.862 5.57085L135.399 3.43543L135.399 11.1068L141.13 11.1068L141.13 17.8976L141.12 17.8976L141.11 17.8875L141.11 17.8875ZM161.95 30.2142C163.268 28.7974 163.925 26.9857 163.925 24.7897C163.925 22.5935 163.268 20.8022 161.95 19.365C160.622 17.9482 159.005 17.2296 157.029 17.2296C155.052 17.2296 153.436 17.9381 152.108 19.365C150.841 20.8527 150.181 22.6441 150.181 24.7897C150.181 26.9351 150.841 28.7265 152.108 30.2142C153.426 31.631 155.052 32.3495 157.029 32.3495C159.005 32.3495 160.622 31.6412 161.95 30.2142L161.95 30.2142ZM147.507 35.0821C144.922 32.2889 143.655 28.8985 143.655 24.7897C143.655 20.6807 144.922 17.341 147.507 14.5478C150.092 11.7544 153.286 10.3376 157.029 10.3376C160.772 10.3376 163.976 11.7544 166.551 14.5478C169.126 17.341 170.454 20.792 170.454 24.7897C170.454 28.7871 169.126 32.2889 166.551 35.0821C163.965 37.8754 160.823 39.2416 157.029 39.2416C153.236 39.2416 150.082 37.8754 147.507 35.0821L147.507 35.0821ZM192.312 30.366C193.63 28.8783 194.289 27.0364 194.289 24.7897C194.289 22.5429 193.63 20.6807 192.312 19.2638C190.995 17.7761 189.319 17.0677 187.292 17.0677C185.267 17.0677 183.589 17.7761 182.222 19.2638C180.905 20.6807 180.245 22.5429 180.245 24.7897C180.245 27.0364 180.905 28.8985 182.222 30.366C183.599 31.7828 185.317 32.5014 187.292 32.5014C189.269 32.5014 190.986 31.793 192.312 30.366L192.312 30.366ZM194.289 0.136167L200.826 0.136167L200.826 38.4826L194.289 38.4826L194.289 35.2541C192.363 37.9361 189.628 39.2618 186.075 39.2618C182.521 39.2618 179.747 37.8956 177.3 35.1023C174.915 32.3091 173.708 28.858 173.708 24.8099C173.708 20.7617 174.925 17.3612 177.3 14.568C179.726 11.7747 182.671 10.3578 186.075 10.3578C189.479 10.3578 192.363 11.6735 194.289 14.3453L194.289 0.146288L194.289 0.136167L194.289 0.136167ZM223.793 30.1837C225.111 28.7669 225.77 26.9554 225.77 24.7593C225.77 22.5631 225.111 20.7718 223.793 19.3347C222.477 17.9178 220.859 17.1993 218.873 17.1993C216.887 17.1993 215.28 17.9077 213.953 19.3347C212.684 20.8224 212.025 22.6137 212.025 24.7593C212.025 26.9048 212.684 28.696 213.953 30.1837C215.27 31.6007 216.897 32.3193 218.873 32.3193C220.849 32.3193 222.467 31.6108 223.793 30.1837L223.793 30.1837ZM209.351 35.0518C206.776 32.2584 205.498 28.8681 205.498 24.7593C205.498 20.6503 206.766 17.3105 209.351 14.5173C211.935 11.7241 215.13 10.3072 218.873 10.3072C222.616 10.3072 225.82 11.7241 228.395 14.5173C230.98 17.3105 232.297 20.7617 232.297 24.7593C232.297 28.7569 230.98 32.2584 228.395 35.0518C225.81 37.845 222.666 39.2113 218.873 39.2113C215.08 39.2113 211.925 37.845 209.351 35.0518L209.351 35.0518ZM260.584 21.6321L260.584 38.4522L254.047 38.4522L254.047 22.5125C254.047 20.7009 253.597 19.3347 252.67 18.3024C251.811 17.3713 250.593 16.8855 249.026 16.8855C245.333 16.8855 243.457 19.1322 243.457 23.6764L243.457 38.4623L236.919 38.4623L236.919 11.0966L243.457 11.0966L243.457 14.1732C245.023 11.6026 247.519 10.3376 251.003 10.3376C253.787 10.3376 256.073 11.3193 257.851 13.3433C259.677 15.3675 260.584 18.1102 260.584 21.6623" id="形状" fill="#000000" fill-rule="evenodd" stroke="none" clip-path="url(#clip_1)" />
  </g>
</svg>