<?xml version="1.0" encoding="utf-8"?>
<svg width="314px" height="80px" viewBox="0 0 314 80" version="1.1" xmlns:xlink="http://www.w3.org/1999/xlink" xmlns="http://www.w3.org/2000/svg">
  <defs>
    <linearGradient gradientUnits="objectBoundingBox" x1="0.5" y1="0" x2="0.5" y2="1" id="gradient_1">
      <stop offset="0.1607717%" stop-color="#FF636B" />
      <stop offset="100%" stop-color="#CC3A83" />
    </linearGradient>
    <path d="M314 0L314 0L314 80L0 80L0 0L314 0Z" id="path_1" />
    <clipPath id="clip_1">
      <use xlink:href="#path_1" clip-rule="evenodd" fill-rule="evenodd" />
    </clipPath>
  </defs>
  <g id="wordmark-black-text">
    <path d="M314 0L314 0L314 80L0 80L0 0L314 0Z" id="wordmark-black-text" fill="none" stroke="none" />
    <path d="M72.9455 17.5206C71.8169 9.02209 64.5038 2.31335 55.846 1.02275C54.3811 0.803588 48.8453 0 36.0206 0L35.9245 0C23.0879 0 20.338 0.803588 18.873 1.02275C10.4433 2.289 2.75813 8.30374 0.884866 16.9118C-0.00373557 21.1489 -0.0998006 25.8487 0.0683131 30.1589C0.308475 36.3441 0.356508 42.5049 0.908881 48.6658C1.29314 52.7568 1.95359 56.8113 2.90223 60.8048C4.67943 68.1832 11.8603 74.3197 18.8971 76.8157C26.4261 79.4213 34.5317 79.8595 42.2888 78.0697C43.1414 77.8628 43.982 77.6315 44.8226 77.3635C46.7079 76.7548 48.9173 76.073 50.5504 74.8798C50.5745 74.8676 50.5865 74.8432 50.5985 74.8189C50.6105 74.7945 50.6225 74.7702 50.6225 74.7336L50.6225 68.7676C50.6225 68.7676 50.6225 68.7189 50.5985 68.6946C50.5985 68.6702 50.5745 68.6459 50.5504 68.6337C50.5264 68.6215 50.5024 68.6093 50.4785 68.5972C50.4543 68.5972 50.4304 68.5972 50.4064 68.5972C45.4349 69.8026 40.3316 70.4114 35.2281 70.3991C26.4261 70.3991 24.0605 66.162 23.3881 64.4088C22.8477 62.8869 22.4995 61.2918 22.3554 59.6846C22.3554 59.6603 22.3554 59.6359 22.3674 59.6116C22.3674 59.5873 22.3914 59.5629 22.4155 59.5507C22.4394 59.5386 22.4634 59.5263 22.4874 59.5142L22.5715 59.5142C27.4588 60.7074 32.4782 61.3162 37.5096 61.3162C38.7225 61.3162 39.9232 61.3162 41.1361 61.2797C46.1915 61.1335 51.5232 60.8778 56.5065 59.8916C56.6265 59.8673 56.7587 59.8429 56.8667 59.8186C64.7201 58.2845 72.1891 53.4873 72.9455 41.3361C72.9697 40.8613 73.0417 36.3198 73.0417 35.8327C73.0417 34.1403 73.582 23.8641 72.9576 17.5451L72.9455 17.5206L72.9455 17.5206Z" id="形状" fill="url(#gradient_1)" stroke="none" clip-path="url(#clip_1)" />
    <path d="M15.3145 22.4452C15.3145 19.9613 17.2718 17.9646 19.6974 17.9646C22.1231 17.9646 24.0803 19.9735 24.0803 22.4452C24.0803 24.9168 22.1231 26.9257 19.6974 26.9257C17.2718 26.9257 15.3145 24.9168 15.3145 22.4452L15.3145 22.4452Z" id="形状" fill="#FFFFFF" stroke="none" clip-path="url(#clip_1)" />
    <path d="M77.811 27.141L77.811 47.742L69.8256 47.742L69.8256 27.7498C69.8256 23.537 68.0965 21.4062 64.6261 21.4062C60.7955 21.4062 58.8622 23.951 58.8622 28.9551L58.8622 39.9009L50.9369 39.9009L50.9369 28.9551C50.9369 23.9265 49.0276 21.4062 45.1729 21.4062C41.7147 21.4062 39.9734 23.537 39.9734 27.7498L39.9734 47.7299L32 47.7299L32 27.141C32 22.9404 33.0447 19.5921 35.1461 17.1083C37.3196 14.6245 40.1655 13.3704 43.6839 13.3704C47.7667 13.3704 50.8648 14.9775 52.9062 18.1919L54.8996 21.6011L56.8929 18.1919C58.9342 14.9898 62.0204 13.3704 66.1151 13.3704C69.6335 13.3704 72.4794 14.6367 74.6529 17.1083C76.7543 19.5921 77.799 22.916 77.799 27.141L77.811 27.141L77.811 27.141ZM105.285 37.3806C106.943 35.5907 107.723 33.3748 107.723 30.6718C107.723 27.9689 106.93 25.7286 105.285 24.024C103.701 22.2342 101.684 21.3819 99.2455 21.3819C96.8078 21.3819 94.8025 22.2342 93.2055 24.024C91.6204 25.7286 90.8279 27.9689 90.8279 30.6718C90.8279 33.3748 91.6204 35.6151 93.2055 37.3806C94.7905 39.0851 96.8078 39.9497 99.2455 39.9497C101.684 39.9497 103.689 39.0974 105.285 37.3806L105.285 37.3806ZM107.723 14.1983L115.589 14.1983L115.589 47.1455L107.723 47.1455L107.723 43.2614C105.346 46.4879 102.055 48.083 97.7806 48.083C93.5057 48.083 90.2154 46.4392 87.2974 43.0788C84.4275 39.7184 82.9746 35.5664 82.9746 30.6962C82.9746 25.826 84.4395 21.7349 87.2974 18.3745C90.2274 15.0141 93.7098 13.3096 97.7806 13.3096C101.851 13.3096 105.346 14.8924 107.723 18.1067L107.723 14.2227L107.723 14.1983L107.723 14.1983ZM142.055 30.051C144.372 31.8407 145.526 34.3368 145.466 37.4902C145.466 40.8506 144.313 43.4928 141.935 45.3191C139.557 47.1089 136.686 48.022 133.204 48.022C126.925 48.022 122.662 45.38 120.404 40.1932L127.226 36.0413C128.137 38.866 130.143 40.3271 133.204 40.3271C136.014 40.3271 137.408 39.414 137.408 37.5023C137.408 36.1144 135.582 34.8603 131.859 33.8862C130.454 33.4965 129.29 33.0948 128.389 32.7661C127.104 32.2426 126.011 31.6459 125.099 30.9154C122.842 29.1256 121.69 26.7635 121.69 23.7318C121.69 20.5053 122.782 17.9362 124.979 16.0856C127.238 14.174 129.986 13.2607 133.276 13.2607C138.523 13.2607 142.354 15.5619 144.865 20.2374L138.164 24.1822C137.191 21.9419 135.534 20.8218 133.276 20.8218C130.898 20.8218 129.746 21.7349 129.746 23.5248C129.746 24.9128 131.572 26.1669 135.294 27.141C138.164 27.7985 140.421 28.7846 142.055 30.051L142.066 30.051L142.055 30.051L142.055 30.051ZM167.055 22.3559L160.162 22.3559L160.162 36.0657C160.162 37.7093 160.775 38.7077 161.939 39.1583C162.792 39.487 164.497 39.5478 167.067 39.4261L167.067 47.1332C161.771 47.7907 157.929 47.255 155.673 45.4895C153.414 43.7849 152.322 40.6072 152.322 36.0778L152.322 22.3559L147.025 22.3559L147.025 14.1861L152.322 14.1861L152.322 7.53829L160.186 4.96923L160.186 14.1983L167.079 14.1983L167.079 22.3682L167.067 22.3682L167.055 22.3559L167.055 22.3559ZM192.128 37.1858C193.714 35.4813 194.505 33.3018 194.505 30.6597C194.505 28.0176 193.714 25.8626 192.128 24.1335C190.531 22.429 188.585 21.5645 186.208 21.5645C183.83 21.5645 181.885 22.4169 180.287 24.1335C178.763 25.9234 177.97 28.0785 177.97 30.6597C177.97 33.2409 178.763 35.396 180.287 37.1858C181.873 38.8904 183.83 39.7548 186.208 39.7548C188.585 39.7548 190.531 38.9026 192.128 37.1858L192.128 37.1858ZM174.753 43.0422C171.643 39.6818 170.117 35.603 170.117 30.6597C170.117 25.7164 171.643 21.6985 174.753 18.3381C177.863 14.9775 181.705 13.273 186.208 13.273C190.71 13.273 194.566 14.9775 197.664 18.3381C200.762 21.6985 202.359 25.8503 202.359 30.6597C202.359 35.469 200.762 39.6818 197.664 43.0422C194.553 46.4027 190.771 48.0464 186.208 48.0464C181.645 48.0464 177.85 46.4027 174.753 43.0422L174.753 43.0422ZM228.656 37.3685C230.242 35.5786 231.035 33.3627 231.035 30.6597C231.035 27.9568 230.242 25.7164 228.656 24.0118C227.072 22.222 225.055 21.3698 222.617 21.3698C220.179 21.3698 218.161 22.222 216.518 24.0118C214.932 25.7164 214.139 27.9568 214.139 30.6597C214.139 33.3627 214.932 35.603 216.518 37.3685C218.173 39.073 220.24 39.9375 222.617 39.9375C224.995 39.9375 227.061 39.0851 228.656 37.3685L228.656 37.3685ZM231.035 1L238.899 1L238.899 47.1332L231.035 47.1332L231.035 43.2492C228.717 46.4758 225.426 48.0707 221.152 48.0707C216.878 48.0707 213.539 46.4271 210.596 43.0665C207.727 39.7061 206.274 35.5543 206.274 30.6841C206.274 25.8139 207.738 21.7228 210.596 18.3624C213.514 15.0019 217.057 13.2973 221.152 13.2973C225.246 13.2973 228.717 14.8801 231.035 18.0945L231.035 1.01218L231.035 1L231.035 1ZM266.531 37.1492C268.115 35.4447 268.909 33.2653 268.909 30.6232C268.909 27.9811 268.115 25.826 266.531 24.0971C264.945 22.3925 263 21.5281 260.61 21.5281C258.221 21.5281 256.289 22.3803 254.691 24.0971C253.165 25.8869 252.372 28.0419 252.372 30.6232C252.372 33.2044 253.165 35.3594 254.691 37.1492C256.276 38.8539 258.234 39.7184 260.61 39.7184C262.989 39.7184 264.933 38.866 266.531 37.1492L266.531 37.1492ZM249.154 43.0057C246.057 39.6452 244.52 35.5664 244.52 30.6232C244.52 25.6799 246.046 21.6619 249.154 18.3015C252.264 14.9411 256.107 13.2364 260.61 13.2364C265.114 13.2364 268.969 14.9411 272.066 18.3015C275.175 21.6619 276.761 25.8139 276.761 30.6232C276.761 35.4326 275.175 39.6452 272.066 43.0057C268.956 46.3662 265.174 48.0099 260.61 48.0099C256.047 48.0099 252.253 46.3662 249.154 43.0057L249.154 43.0057ZM310.792 26.861L310.792 47.0967L302.927 47.0967L302.927 27.9202C302.927 25.7407 302.386 24.0971 301.271 22.8552C300.237 21.7349 298.773 21.1505 296.887 21.1505C292.445 21.1505 290.187 23.8535 290.187 29.3204L290.187 47.1089L282.321 47.1089L282.321 14.1861L290.187 14.1861L290.187 17.8875C292.071 14.7949 295.073 13.273 299.264 13.273C302.615 13.273 305.365 14.454 307.503 16.8891C309.701 19.3242 310.792 22.6239 310.792 26.8974" id="形状" fill="#FFFFFF" fill-rule="evenodd" stroke="none" clip-path="url(#clip_1)" />
    <path d="M80.5188 26.3048L80.5188 46.9058L72.5334 46.9058L72.5334 26.9136C72.5334 22.7008 70.8042 20.57 67.3338 20.57C63.5033 20.57 61.5699 23.1148 61.5699 28.1189L61.5699 39.0647L53.6446 39.0647L53.6446 28.1189C53.6446 23.0904 51.7353 20.57 47.8807 20.57C44.4224 20.57 42.6811 22.7008 42.6811 26.9136L42.6811 46.8937L34.7078 46.8937L34.7078 26.3048C34.7078 22.1042 35.7525 18.7559 37.8539 16.2721C40.0274 13.7883 42.8733 12.5342 46.3916 12.5342C50.4744 12.5342 53.5725 14.1413 55.614 17.3557L57.6073 20.7649L59.6007 17.3557C61.642 14.1536 64.7281 12.5342 68.8229 12.5342C72.3412 12.5342 75.1872 13.8005 77.3607 16.2721C79.4621 18.7559 80.5068 22.0798 80.5068 26.3048L80.5188 26.3048L80.5188 26.3048ZM107.993 36.5444C109.65 34.7546 110.431 32.5386 110.431 29.8357C110.431 27.1327 109.638 24.8924 107.993 23.1879C106.408 21.398 104.391 20.5457 101.953 20.5457C99.5156 20.5457 97.5102 21.398 95.9132 23.1879C94.3281 24.8924 93.5356 27.1327 93.5356 29.8357C93.5356 32.5386 94.3281 34.7789 95.9132 36.5444C97.4982 38.2489 99.5156 39.1135 101.953 39.1135C104.391 39.1135 106.396 38.2612 107.993 36.5444L107.993 36.5444ZM110.431 13.3622L118.296 13.3622L118.296 46.3093L110.431 46.3093L110.431 42.4253C108.053 45.6517 104.763 47.2468 100.488 47.2468C96.2134 47.2468 92.9232 45.603 90.0052 42.2426C87.1353 38.8822 85.6823 34.7302 85.6823 29.86C85.6823 24.9898 87.1472 20.8988 90.0052 17.5383C92.9352 14.1779 96.4176 12.4734 100.488 12.4734C104.559 12.4734 108.053 14.0562 110.431 17.2705L110.431 13.3865L110.431 13.3622L110.431 13.3622ZM144.762 29.2148C147.08 31.0045 148.233 33.5006 148.173 36.654C148.173 40.0144 147.02 42.6566 144.642 44.4829C142.265 46.2727 139.394 47.1858 135.912 47.1858C129.632 47.1858 125.369 44.5438 123.111 39.357L129.933 35.2051C130.844 38.0298 132.851 39.4909 135.912 39.4909C138.722 39.4909 140.115 38.5778 140.115 36.6661C140.115 35.2782 138.289 34.0241 134.567 33.05C133.162 32.6604 131.998 32.2586 131.097 31.9299C129.812 31.4064 128.719 30.8097 127.806 30.0792C125.549 28.2894 124.397 25.9273 124.397 22.8956C124.397 19.6691 125.489 17.1 127.687 15.2494C129.945 13.3378 132.694 12.4246 135.984 12.4246C141.231 12.4246 145.062 14.7258 147.572 19.4012L140.872 23.346C139.899 21.1058 138.241 19.9856 135.984 19.9856C133.606 19.9856 132.454 20.8988 132.454 22.6886C132.454 24.0767 134.279 25.3308 138.002 26.3048C140.872 26.9623 143.129 27.9485 144.762 29.2148L144.774 29.2148L144.762 29.2148L144.762 29.2148ZM169.764 21.5198L162.87 21.5198L162.87 35.2295C162.87 36.8731 163.483 37.8715 164.648 38.3221C165.5 38.6508 167.206 38.7116 169.776 38.5899L169.776 46.2971C164.48 46.9545 160.637 46.4188 158.38 44.6533C156.122 42.9487 155.029 39.771 155.029 35.2416L155.029 21.5198L149.733 21.5198L149.733 13.3499L155.029 13.3499L155.029 6.7021L162.894 4.13305L162.894 13.3622L169.788 13.3622L169.788 21.532L169.776 21.532L169.764 21.5198L169.764 21.5198ZM194.836 36.3496C196.422 34.6451 197.213 32.4656 197.213 29.8236C197.213 27.1814 196.422 25.0264 194.836 23.2974C193.239 21.5928 191.293 20.7283 188.916 20.7283C186.538 20.7283 184.593 21.5807 182.996 23.2974C181.471 25.0872 180.678 27.2423 180.678 29.8236C180.678 32.4047 181.471 34.5598 182.996 36.3496C184.581 38.0542 186.538 38.9186 188.916 38.9186C191.293 38.9186 193.239 38.0664 194.836 36.3496L194.836 36.3496ZM177.461 42.206C174.35 38.8456 172.826 34.7668 172.826 29.8236C172.826 24.8802 174.35 20.8623 177.461 17.5019C180.571 14.1413 184.413 12.4368 188.916 12.4368C193.419 12.4368 197.274 14.1413 200.372 17.5019C203.47 20.8623 205.067 25.0141 205.067 29.8236C205.067 34.6328 203.47 38.8456 200.372 42.206C197.261 45.5666 193.48 47.2102 188.916 47.2102C184.353 47.2102 180.559 45.5666 177.461 42.206L177.461 42.206ZM231.364 36.5323C232.95 34.7425 233.742 32.5265 233.742 29.8236C233.742 27.1206 232.95 24.8802 231.364 23.1756C229.78 21.3858 227.763 20.5336 225.325 20.5336C222.888 20.5336 220.869 21.3858 219.225 23.1756C217.64 24.8802 216.847 27.1206 216.847 29.8236C216.847 32.5265 217.64 34.7668 219.225 36.5323C220.881 38.2368 222.948 39.1013 225.325 39.1013C227.703 39.1013 229.768 38.249 231.364 36.5323L231.364 36.5323ZM233.742 0.163818L241.607 0.163818L241.607 46.2971L233.742 46.2971L233.742 42.413C231.425 45.6396 228.135 47.2345 223.86 47.2345C219.585 47.2345 216.247 45.5909 213.304 42.2304C210.434 38.8699 208.982 34.7181 208.982 29.8479C208.982 24.9777 210.446 20.8867 213.304 17.5262C216.222 14.1657 219.765 12.4611 223.86 12.4611C227.955 12.4611 231.425 14.044 233.742 17.2583L233.742 0.175994L233.742 0.163818L233.742 0.163818ZM269.238 36.313C270.823 34.6085 271.616 32.4291 271.616 29.787C271.616 27.1449 270.823 24.9898 269.238 23.2609C267.654 21.5563 265.708 20.6919 263.318 20.6919C260.929 20.6919 258.996 21.5441 257.399 23.2609C255.873 25.0507 255.08 27.2057 255.08 29.787C255.08 32.3682 255.873 34.5232 257.399 36.313C258.984 38.0177 260.941 38.8822 263.318 38.8822C265.696 38.8822 267.642 38.0298 269.238 36.313L269.238 36.313ZM251.863 42.1696C248.765 38.809 247.227 34.7302 247.227 29.787C247.227 24.8437 248.753 20.8257 251.863 17.4653C254.972 14.1049 258.815 12.4002 263.318 12.4002C267.822 12.4002 271.676 14.1049 274.774 17.4653C277.884 20.8257 279.469 24.9777 279.469 29.787C279.469 34.5964 277.884 38.809 274.774 42.1696C271.664 45.53 267.882 47.1737 263.318 47.1737C258.755 47.1737 254.96 45.53 251.863 42.1696L251.863 42.1696ZM313.5 26.0248L313.5 46.2605L305.635 46.2605L305.635 27.084C305.635 24.9045 305.094 23.2609 303.978 22.019C302.945 20.8988 301.48 20.3144 299.594 20.3144C295.152 20.3144 292.894 23.0173 292.894 28.4842L292.894 46.2727L285.029 46.2727L285.029 13.3499L292.894 13.3499L292.894 17.0513C294.779 13.9587 297.781 12.4368 301.973 12.4368C305.322 12.4368 308.072 13.6179 310.211 16.0529C312.408 18.4881 313.5 21.7877 313.5 26.0612" id="形状" fill="#000000" fill-rule="evenodd" stroke="none" clip-path="url(#clip_1)" />
  </g>
</svg>